<svg xmlns="http://www.w3.org/2000/svg" viewBox="0 0 780 430" font-family="'Space Grotesk', Georgia, serif" font-size="14">
  <defs>
    <style>
      .edge { stroke: #56627a; stroke-width: 1.6; fill: none; }
      .elabel { fill: #38bdf8; font-style: italic; font-size: 13px; }
      .node { fill: #161e2e; stroke: #8b96ab; stroke-width: 1.4; }
      .chance { fill: #2a2110; stroke: #fbbf24; }
      .leaf { fill: #0f2a1f; stroke: #34e3a4; }
      .ntext { fill: #e6ebf5; text-anchor: middle; }
      .small { font-size: 12px; fill: #8b96ab; text-anchor: middle; }
    </style>
  </defs>

  <!-- chance -->
  <rect class="node chance" x="290" y="10" width="200" height="38" rx="9"/>
  <text class="ntext" x="390" y="28">Chance: deal 1 card each</text>
  <text class="small" x="390" y="42">from {J, Q, K}, no replacement</text>

  <line class="edge" x1="390" y1="48" x2="390" y2="80"/>

  <!-- P1 root -->
  <rect class="node" x="320" y="80" width="140" height="34" rx="9"/>
  <text class="ntext" x="390" y="102">Player 1 acts</text>

  <!-- edges from P1 -->
  <line class="edge" x1="355" y1="114" x2="215" y2="165"/>
  <text class="elabel" x="245" y="135">check (p)</text>
  <line class="edge" x1="425" y1="114" x2="565" y2="165"/>
  <text class="elabel" x="500" y="135">bet (b)</text>

  <!-- P2 after check -->
  <rect class="node" x="145" y="165" width="140" height="34" rx="9"/>
  <text class="ntext" x="215" y="187">Player 2 acts</text>

  <!-- P2 after bet -->
  <rect class="node" x="495" y="165" width="140" height="34" rx="9"/>
  <text class="ntext" x="565" y="187">Player 2 acts</text>

  <!-- edges from P2-left -->
  <line class="edge" x1="180" y1="199" x2="105" y2="255"/>
  <text class="elabel" x="105" y="222">check (p)</text>
  <line class="edge" x1="250" y1="199" x2="320" y2="255"/>
  <text class="elabel" x="305" y="222">bet (b)</text>

  <!-- showdown leaf pp -->
  <rect class="leaf" x="30" y="255" width="150" height="48" rx="9"/>
  <text class="ntext" x="105" y="275">Showdown</text>
  <text class="small" x="105" y="293">high card wins &#177;1</text>

  <!-- P1 facing bet after check -->
  <rect class="node" x="250" y="255" width="140" height="34" rx="9"/>
  <text class="ntext" x="320" y="277">Player 1 acts</text>

  <line class="edge" x1="285" y1="289" x2="235" y2="350"/>
  <text class="elabel" x="222" y="318">fold (p)</text>
  <line class="edge" x1="355" y1="289" x2="405" y2="350"/>
  <text class="elabel" x="403" y="318">call (b)</text>

  <rect class="leaf" x="160" y="350" width="150" height="48" rx="9"/>
  <text class="ntext" x="235" y="370">P1 folds</text>
  <text class="small" x="235" y="388">P2 wins +1</text>

  <rect class="leaf" x="330" y="350" width="150" height="48" rx="9"/>
  <text class="ntext" x="405" y="370">Showdown</text>
  <text class="small" x="405" y="388">high card wins &#177;2</text>

  <!-- edges from P2-right -->
  <line class="edge" x1="530" y1="199" x2="490" y2="255"/>
  <text class="elabel" x="478" y="222">fold (p)</text>
  <line class="edge" x1="600" y1="199" x2="660" y2="255"/>
  <text class="elabel" x="655" y="222">call (b)</text>

  <rect class="leaf" x="415" y="255" width="150" height="48" rx="9"/>
  <text class="ntext" x="490" y="275">P2 folds</text>
  <text class="small" x="490" y="293">P1 wins +1</text>

  <rect class="leaf" x="585" y="255" width="150" height="48" rx="9"/>
  <text class="ntext" x="660" y="275">Showdown</text>
  <text class="small" x="660" y="293">high card wins &#177;2</text>
</svg>
